<svg width="17" height="17" viewBox="0 0 17 17" fill="none" xmlns="http://www.w3.org/2000/svg">
<path d="M9 2C12.8661 2 16 5.1339 16 9C16.0009 10.0868 15.7483 11.1588 15.2624 12.1309C14.7765 13.1031 14.0705 13.9485 13.2007 14.6H14.6C14.7857 14.6 14.9637 14.6737 15.095 14.805C15.2263 14.9363 15.3 15.1143 15.3 15.3C15.3 15.4857 15.2263 15.6637 15.095 15.795C14.9637 15.9263 14.7857 16 14.6 16H9C5.1339 16 2 12.8661 2 9C2 5.1339 5.1339 2 9 2ZM9 10.4C8.6287 10.4 8.2726 10.5475 8.01005 10.8101C7.7475 11.0726 7.6 11.4287 7.6 11.8C7.6 12.1713 7.7475 12.5274 8.01005 12.7899C8.2726 13.0525 8.6287 13.2 9 13.2C9.3713 13.2 9.7274 13.0525 9.98995 12.7899C10.2525 12.5274 10.4 12.1713 10.4 11.8C10.4 11.4287 10.2525 11.0726 9.98995 10.8101C9.7274 10.5475 9.3713 10.4 9 10.4ZM6.2 7.6C5.8287 7.6 5.4726 7.7475 5.21005 8.01005C4.9475 8.2726 4.8 8.6287 4.8 9C4.8 9.3713 4.9475 9.7274 5.21005 9.98995C5.4726 10.2525 5.8287 10.4 6.2 10.4C6.5713 10.4 6.9274 10.2525 7.18995 9.98995C7.4525 9.7274 7.6 9.3713 7.6 9C7.6 8.6287 7.4525 8.2726 7.18995 8.01005C6.9274 7.7475 6.5713 7.6 6.2 7.6ZM11.8 7.6C11.4287 7.6 11.0726 7.7475 10.8101 8.01005C10.5475 8.2726 10.4 8.6287 10.4 9C10.4 9.3713 10.5475 9.7274 10.8101 9.98995C11.0726 10.2525 11.4287 10.4 11.8 10.4C12.1713 10.4 12.5274 10.2525 12.7899 9.98995C13.0525 9.7274 13.2 9.3713 13.2 9C13.2 8.6287 13.0525 8.2726 12.7899 8.01005C12.5274 7.7475 12.1713 7.6 11.8 7.6ZM9 4.8C8.6287 4.8 8.2726 4.9475 8.01005 5.21005C7.7475 5.4726 7.6 5.8287 7.6 6.2C7.6 6.5713 7.7475 6.9274 8.01005 7.18995C8.2726 7.4525 8.6287 7.6 9 7.6C9.3713 7.6 9.7274 7.4525 9.98995 7.18995C10.2525 6.9274 10.4 6.5713 10.4 6.2C10.4 5.8287 10.2525 5.4726 9.98995 5.21005C9.7274 4.9475 9.3713 4.8 9 4.8Z" fill="#D2CCC6"/>
</svg>
