<svg width="17" height="17" viewBox="0 0 17 17" fill="none" xmlns="http://www.w3.org/2000/svg">
<path d="M12.2588 8.32061C13.0891 8.17813 13.7379 7.95042 13.7379 7.57844L13.7375 7.57496V7.5112C13.7375 7.41962 13.7375 7.141 11.9456 5.65998C11.5806 5.35973 11.3285 4.94438 11.2305 4.48203L11.7673 4.43912L12.0424 4.5298C12.1979 4.58106 12.3646 4.58823 12.5239 4.55051C12.6832 4.51279 12.829 4.43166 12.945 4.31612L13.1951 4.06716C13.2608 4.00503 13.3065 3.92473 13.3263 3.83651C13.3462 3.74829 13.3393 3.65616 13.3065 3.57188C13.2681 3.48183 13.2002 3.40754 13.114 3.36125C13.0277 3.31495 12.9283 3.29942 12.832 3.3172L12.4857 3.38049L11.3185 2.37476C11.0379 2.13299 10.6798 2 10.3095 2H9.28671C9.07927 2 8.87394 2.04174 8.68296 2.12273C8.49199 2.20373 8.31926 2.32232 8.17506 2.47145L7.78497 2.87489C7.50757 3.16179 7.31089 3.51687 7.21484 3.90421L7.193 3.99228C7.08878 4.4107 6.85799 4.78676 6.53213 5.06915C5.12798 6.28717 4.32794 7.03248 4.1542 7.28456C4.15223 7.2874 4.15187 7.2908 4.15004 7.2937C4.10578 7.32736 4.06943 7.37028 4.04351 7.41947C4.01759 7.46865 4.00274 7.52291 4 7.57844C4 7.96037 4.68596 8.19118 5.5482 8.33242C5.56551 8.44267 5.59552 8.55054 5.63762 8.6539L5.46186 10.9708C5.24764 11.1237 5.06619 11.318 4.92822 11.5421C4.79024 11.7662 4.69852 12.0157 4.65847 12.2758L4.60514 12.6282C4.59464 12.693 4.59976 12.7593 4.62007 12.8217C4.64038 12.8841 4.67529 12.9407 4.7219 12.9869C4.72734 12.9921 4.73287 12.9973 4.73848 13.0024C4.79006 13.0479 4.82962 13.1053 4.85366 13.1697C4.87769 13.2341 4.88546 13.3035 4.87626 13.3716L4.62137 15.0766C4.5991 15.2296 4.63795 15.3852 4.7295 15.5097C4.82106 15.6342 4.95796 15.7177 5.11059 15.7421C6.36688 15.9214 7.63474 16.0074 8.90374 15.9994C10.1752 16.008 11.4454 15.9212 12.7039 15.7397C12.855 15.7142 12.9901 15.6305 13.0803 15.5066C13.1704 15.3826 13.2084 15.2283 13.1861 15.0766L12.9377 13.4147C12.9269 13.3465 12.9333 13.2768 12.9563 13.2117C12.9792 13.1467 13.0179 13.0883 13.069 13.042L13.0729 13.0385C13.1237 12.9919 13.1623 12.9334 13.1853 12.8684C13.2083 12.8033 13.2149 12.7336 13.2047 12.6653L13.149 12.2758C13.1083 12.0157 13.0162 11.7663 12.878 11.5422C12.7398 11.3182 12.5582 11.1239 12.344 10.9709L12.1688 8.65064C12.2117 8.54457 12.2419 8.43379 12.2588 8.32061ZM10.2646 10.3164C10.2971 10.426 10.3174 10.5388 10.325 10.6528C10.3297 10.7224 10.332 10.7896 10.332 10.8592C10.3319 11.3675 10.2001 11.867 9.94934 12.3091C9.69862 12.7512 9.33757 13.1208 8.90142 13.3818C8.4659 13.1203 8.10547 12.7506 7.85519 12.3085C7.60491 11.8665 7.47331 11.3672 7.47319 10.8592C7.47319 10.7896 7.4755 10.7224 7.48015 10.6528C7.48779 10.539 7.50799 10.4264 7.54038 10.317C7.93061 10.2548 8.3003 10.1002 8.61854 9.86599C8.70127 9.80472 8.8015 9.77165 8.90445 9.77165C9.0074 9.77165 9.10763 9.80472 9.19036 9.86599C9.5075 10.0995 9.87578 10.2539 10.2646 10.3164ZM9.46479 9.49217C9.30255 9.37232 9.10616 9.30764 8.90445 9.30764C8.70275 9.30764 8.50635 9.37232 8.34412 9.49217C7.95391 9.78079 7.47245 9.91848 6.98865 9.87981C7.09236 9.60202 7.25531 9.35014 7.46617 9.14167C7.58626 9.02996 7.72757 8.94351 7.88171 8.88746C8.03585 8.83141 8.19968 8.8069 8.36348 8.81539C8.3775 8.83262 8.39239 8.84913 8.40808 8.86486C8.47247 8.93086 8.54952 8.98318 8.63461 9.0187C8.71969 9.05423 8.81107 9.07221 8.90328 9.07159C9.00647 9.07162 9.10837 9.04866 9.20157 9.00436C9.29476 8.96006 9.37692 8.89555 9.44205 8.81551C9.6059 8.80653 9.76988 8.83075 9.92415 8.8867C10.0784 8.94265 10.2198 9.02918 10.3398 9.1411C10.551 9.34968 10.7141 9.60175 10.818 9.87979C10.3349 9.91858 9.8541 9.78087 9.46479 9.49217ZM6.21114 7.20559C6.28456 7.19723 6.35896 7.18902 6.43662 7.18127C6.42843 7.29516 6.42794 7.40948 6.43516 7.52345C6.38268 7.51614 6.3298 7.51205 6.27682 7.5112H6.18784L6.21114 7.20559ZM7.14012 8.81189C7.13342 8.81855 7.12819 8.82632 7.12156 8.83306L6.92138 7.70828C6.88869 7.52097 6.88244 7.33 6.9028 7.14095C6.92317 7.13942 6.94281 7.13774 6.96343 7.13625C7.04738 7.13007 7.13338 7.12478 7.2194 7.11947C7.33833 7.11221 7.46074 7.10569 7.58663 7.09993C7.63972 7.09749 7.6924 7.09488 7.74616 7.09275C7.82687 7.08955 7.90996 7.08691 7.99341 7.08435C8.02665 7.08334 8.0604 7.08261 8.09388 7.08173C8.20334 7.087 8.31164 7.10659 8.41601 7.13999C8.56286 7.18518 8.71498 7.21098 8.86851 7.21675C9.01718 7.21096 9.16434 7.18471 9.30585 7.13874C9.40306 7.10745 9.5037 7.08807 9.60558 7.08101C9.66525 7.08251 9.72487 7.08403 9.78389 7.08592C9.85011 7.08805 9.91728 7.08994 9.9817 7.09249C10.1278 7.09826 10.2722 7.10489 10.4127 7.11301C10.431 7.11404 10.4479 7.11534 10.466 7.11641C10.6158 7.12543 10.7629 7.13547 10.9047 7.14718C10.9121 7.21494 10.9159 7.28304 10.9163 7.3512C10.9157 7.47016 10.9048 7.58886 10.8838 7.70594L10.6828 8.83058C10.6767 8.82445 10.672 8.81736 10.6659 8.8113C10.4837 8.63988 10.266 8.51067 10.0283 8.43283C9.79056 8.355 9.53862 8.33046 9.29034 8.36095C9.2524 8.36481 9.216 8.37795 9.18435 8.39921C9.1527 8.42048 9.12677 8.44921 9.10887 8.48288C9.0911 8.51431 9.06643 8.5413 9.03671 8.56179C9.00699 8.58229 8.973 8.59576 8.93731 8.60119C8.90162 8.60662 8.86516 8.60387 8.83069 8.59314C8.79621 8.58241 8.76463 8.56399 8.73833 8.53926C8.72302 8.5243 8.71022 8.50699 8.7004 8.48797C8.6829 8.45301 8.65685 8.42303 8.62467 8.40082C8.59248 8.37861 8.55521 8.3649 8.51631 8.36095C8.26788 8.33041 8.01577 8.35498 7.77792 8.43291C7.54006 8.51085 7.3223 8.64025 7.14012 8.81189ZM11.3718 7.18907C11.4496 7.19718 11.5237 7.20578 11.597 7.21446L11.6196 7.5112H11.5307C11.4775 7.51202 11.4245 7.51607 11.3719 7.52331C11.3761 7.46574 11.38 7.4082 11.38 7.35122C11.38 7.29697 11.3755 7.24303 11.3718 7.18907ZM12.0952 7.67597L12.0651 7.27794C12.4654 7.3176 12.8571 7.41928 13.2261 7.57934C12.9071 7.72112 12.5685 7.81378 12.2217 7.85416C12.1909 7.78741 12.148 7.72699 12.0952 7.67597ZM5.74286 7.26681L5.71191 7.67465C5.65496 7.72855 5.60932 7.79326 5.57766 7.865C5.21202 7.82476 4.85458 7.72944 4.51745 7.58228C4.90687 7.4136 5.32039 7.30714 5.74286 7.26681ZM5.99164 8.10011C5.99157 8.08365 5.99476 8.06734 6.00103 8.05212C6.0073 8.0369 6.01652 8.02307 6.02816 8.01143C6.0398 7.99979 6.05363 7.99057 6.06885 7.9843C6.08407 7.97804 6.10038 7.97484 6.11684 7.97491H6.27682C6.35361 7.97544 6.42995 7.98675 6.5036 8.00853L6.68811 9.04572C6.4867 8.98241 6.31065 8.85666 6.18544 8.68667C6.06023 8.51667 5.99236 8.31124 5.99164 8.10011ZM11.3011 8.00921C11.3756 7.98694 11.4529 7.97539 11.5307 7.97491H11.6906C11.7235 7.97526 11.7549 7.98864 11.778 8.01211C11.801 8.03558 11.8138 8.06723 11.8135 8.10011C11.8128 8.31134 11.7449 8.51687 11.6197 8.68697C11.4944 8.85706 11.3183 8.9829 11.1168 9.04629L11.3011 8.00921ZM6.05951 9.22612C6.23018 9.36652 6.4305 9.46632 6.64537 9.518C6.56647 9.67856 6.50536 9.84725 6.46313 10.0211C6.45611 10.0515 6.4553 10.083 6.46075 10.1137C6.4662 10.1444 6.47779 10.1737 6.49483 10.1998C6.51187 10.226 6.534 10.2484 6.55992 10.2658C6.58583 10.2831 6.61498 10.2951 6.64562 10.3009C6.78143 10.3265 6.91903 10.3413 7.05716 10.3451C7.04034 10.4292 7.02845 10.5141 7.02154 10.5995H6.60605C6.38119 10.5999 6.15811 10.6394 5.94679 10.7163L6.05951 9.22612ZM11.2014 10.5995H10.7859C10.779 10.5141 10.7671 10.4291 10.7503 10.3451C10.8884 10.3413 11.0259 10.3265 11.1616 10.3008C11.1922 10.2949 11.2212 10.2829 11.247 10.2655C11.2729 10.2481 11.2949 10.2257 11.3119 10.1996C11.3289 10.1735 11.3404 10.1442 11.3459 10.1135C11.3513 10.0829 11.3505 10.0514 11.3435 10.0211C11.3013 9.84726 11.2402 9.67856 11.1612 9.51801C11.3766 9.46601 11.5773 9.36559 11.748 9.22437L11.8608 10.7167C11.6495 10.6396 11.4264 10.5999 11.2014 10.5995Z" fill="#D2CCC6"/>
</svg>
