<svg width="17" height="17" viewBox="0 0 17 17" fill="none" xmlns="http://www.w3.org/2000/svg">
<path d="M6.36235 16H3.25123C2.39568 16 1.69568 15.3 1.69568 14.4444V3.55556C1.69568 2.7 2.39568 2 3.25123 2H6.36235C7.2179 2 7.9179 2.7 7.9179 3.55556V14.4444C7.9179 15.3 7.2179 16 6.36235 16ZM11.029 16H14.1401C14.9957 16 15.6957 15.3 15.6957 14.4444V10.5556C15.6957 9.7 14.9957 9 14.1401 9H11.029C10.1735 9 9.47346 9.7 9.47346 10.5556V14.4444C9.47346 15.3 10.1735 16 11.029 16ZM15.6957 5.88889V3.55556C15.6957 2.7 14.9957 2 14.1401 2H11.029C10.1735 2 9.47346 2.7 9.47346 3.55556V5.88889C9.47346 6.74444 10.1735 7.44444 11.029 7.44444H14.1401C14.9957 7.44444 15.6957 6.74444 15.6957 5.88889Z" fill="#D2CCC6"/>
</svg>
