<svg width="17" height="17" viewBox="0 0 17 17" fill="none" xmlns="http://www.w3.org/2000/svg">
<path d="M5.00781 16C5.27755 16 5.46669 15.8653 5.78364 15.5682L8.22598 13.3418L12.7802 13.3484C14.791 13.3553 15.8705 12.2352 15.8705 10.2583V5.09006C15.8705 3.11322 14.791 2 12.7805 2H4.09006C2.08645 2 1 3.10631 1 5.09006V10.2583C1 12.2418 2.08616 13.3484 4.09006 13.3418H4.4073V15.3051C4.4073 15.7234 4.62983 16 5.00781 16ZM5.17651 7.25576C5.17651 6.43963 5.80408 5.8728 6.62021 5.8728C7.5109 5.8728 8.11141 6.58098 8.11141 7.50563C8.11141 9.23951 6.72816 10.0626 6.03323 10.0626C5.83747 10.0626 5.69584 9.92092 5.69584 9.7456C5.69584 9.58352 5.77011 9.47557 6.02661 9.40159C6.47195 9.2801 6.99128 8.92918 7.24116 8.36926H7.18704C7.00481 8.59179 6.72816 8.639 6.43827 8.639C5.66907 8.639 5.17651 8.03158 5.17651 7.25576ZM8.86046 7.25576C8.86046 6.43963 9.48803 5.8728 10.3042 5.8728C11.1949 5.8728 11.7954 6.58098 11.7954 7.50563C11.7954 9.23951 10.4121 10.0626 9.71718 10.0626C9.52143 10.0626 9.37979 9.92092 9.37979 9.7456C9.37979 9.58352 9.45406 9.47557 9.71056 9.40159C10.1559 9.2801 10.6752 8.92918 10.9248 8.36926H10.871C10.6888 8.59179 10.4121 8.639 10.1219 8.639C9.35302 8.639 8.86046 8.03158 8.86046 7.25576Z" fill="#D2CCC6"/>
</svg>
