<svg width="20" height="20" viewBox="0 0 20 20" fill="none" xmlns="http://www.w3.org/2000/svg">
<path d="M11.8858 15.8335C11.7613 15.8339 11.6382 15.8064 11.5258 15.7531C11.4133 15.6997 11.3142 15.6218 11.2358 15.5251L7.21075 10.5251C7.08818 10.376 7.02118 10.189 7.02118 9.99598C7.02118 9.80296 7.08818 9.61593 7.21075 9.46681L11.3774 4.46682C11.5189 4.29663 11.7221 4.18961 11.9425 4.1693C12.1628 4.14898 12.3822 4.21703 12.5524 4.35848C12.7226 4.49993 12.8296 4.70319 12.8499 4.92355C12.8703 5.1439 12.8022 5.3633 12.6608 5.53348L8.93575 10.0001L12.5358 14.4668C12.6377 14.5891 12.7024 14.7381 12.7223 14.896C12.7422 15.054 12.7164 15.2144 12.648 15.3581C12.5797 15.5019 12.4715 15.6231 12.3364 15.7073C12.2013 15.7916 12.0449 15.8353 11.8858 15.8335Z" fill="#DEE6ED"/>
</svg>
