<svg width="20" height="20" viewBox="0 0 20 20" fill="none" xmlns="http://www.w3.org/2000/svg">
<path d="M8.11425 15.8335C8.23874 15.8339 8.36175 15.8064 8.47423 15.7531C8.58672 15.6997 8.68582 15.6218 8.76425 15.5251L12.7892 10.5251C12.9118 10.376 12.9788 10.189 12.9788 9.99598C12.9788 9.80296 12.9118 9.61593 12.7892 9.46681L8.62258 4.46682C8.48113 4.29663 8.27787 4.18961 8.05752 4.1693C7.83716 4.14898 7.61776 4.21703 7.44758 4.35848C7.2774 4.49993 7.17038 4.70319 7.15006 4.92355C7.12975 5.1439 7.1978 5.3633 7.33925 5.53348L11.0642 10.0001L7.46425 14.4668C7.36235 14.5891 7.29761 14.7381 7.27771 14.896C7.25782 15.054 7.28358 15.2144 7.35196 15.3581C7.42034 15.5019 7.52847 15.6231 7.66356 15.7073C7.79866 15.7916 7.95505 15.8353 8.11425 15.8335Z" fill="#DEE6ED" fill-opacity="0.5"/>
</svg>
